<svg xmlns="http://www.w3.org/2000/svg" xmlns:xlink="http://www.w3.org/1999/xlink" width="18" height="18" viewBox="0 0 18 18"><defs><style>.a,.c{fill:#fff;}.a{stroke:#707070;}.b{clip-path:url(#a);}</style><clipPath id="a"><rect class="a" width="18" height="18" transform="translate(2995 342)"/></clipPath></defs><g class="b" transform="translate(-2995 -342)"><g transform="translate(-26.133 -74.133)"><g transform="translate(3022 417)"><path class="c" d="M11.862,0H4.4A4.408,4.408,0,0,0,0,4.4v7.46a4.408,4.408,0,0,0,4.4,4.4h7.46a4.408,4.408,0,0,0,4.4-4.4V4.4a4.408,4.408,0,0,0-4.4-4.4ZM8.132,12.581A4.448,4.448,0,1,1,12.58,8.133,4.453,4.453,0,0,1,8.132,12.581Zm4.554-7.846A1.314,1.314,0,1,1,14,3.42,1.316,1.316,0,0,1,12.686,4.734Zm0,0" transform="translate(0.001 0)"/><path class="c" d="M149.514,146.02a3.494,3.494,0,1,0,3.494,3.494A3.5,3.5,0,0,0,149.514,146.02Zm0,0" transform="translate(-141.381 -141.381)"/><path class="c" d="M388.353,96.3a.361.361,0,1,0,.361.361A.361.361,0,0,0,388.353,96.3Zm0,0" transform="translate(-375.666 -93.241)"/></g></g></g></svg>