<svg xmlns="http://www.w3.org/2000/svg" xmlns:xlink="http://www.w3.org/1999/xlink" width="20" height="18" viewBox="0 0 20 18"><defs><style>.a,.c{fill:#fff;}.a{stroke:#707070;}.b{clip-path:url(#a);}</style><clipPath id="a"><rect class="a" width="20" height="18" transform="translate(0.332 0)"/></clipPath></defs><g class="b" transform="translate(-0.332)"><path class="c" d="M133.325,145.572q.012.258.011.517a11.316,11.316,0,0,1-11.393,11.393h0a11.334,11.334,0,0,1-6.138-1.8,8.144,8.144,0,0,0,.955.055,8.035,8.035,0,0,0,4.974-1.714,4.009,4.009,0,0,1-3.741-2.781,3.989,3.989,0,0,0,1.809-.069,4.005,4.005,0,0,1-3.213-3.925c0-.018,0-.034,0-.051a3.977,3.977,0,0,0,1.814.5,4.008,4.008,0,0,1-1.24-5.346,11.369,11.369,0,0,0,8.254,4.184,4.006,4.006,0,0,1,6.824-3.652,8.033,8.033,0,0,0,2.543-.972,4.02,4.02,0,0,1-1.761,2.215,7.988,7.988,0,0,0,2.3-.631A8.138,8.138,0,0,1,133.325,145.572Z" transform="translate(-114.84 -141.134)"/></g></svg>